# xmcd CD database file
#
# Track frame offsets:
#	182
#	19467
#	38075
#	52787
#	66825
#	79135
#	96452
#	113670
#	125470
#	134990
#	149027
#
# Disc length: 2106 seconds
#
# Revision: 3
# Processed by: cddbd v1.5.2PL0 Copyright (c) Steve Scherf et al.
# Submitted via: CDex 1.70beta2
#
DISCID=a508380b
DTITLE=Bobbie Gentry - Greatest Hits
DYEAR=1990
DGENRE=Blues
TTITLE0=Ode To Billie Joe
TTITLE1=Fancy
TTITLE2=Okolona River Bottom Band
TTITLE3=Morning Glory
TTITLE4=Louisiana Man
TTITLE5=Slow Cookin'
TTITLE6=Steal Away
TTITLE7=All I Have To Do Is Dream  (feat. Glen Campbell)
TTITLE8=Let It Be Me  (feat. Glen Campbell)
TTITLE9=Mississippi Delta
TTITLE10=Penduli Pendulum
EXTD=YEAR: 1990
EXTT0=
EXTT1=
EXTT2=
EXTT3=
EXTT4=
EXTT5=
EXTT6=
EXTT7=
EXTT8=
EXTT9=
EXTT10=
PLAYORDER=
